<svg width="223" height="200" fill="none" xmlns="http://www.w3.org/2000/svg">
  <path fill="#fff" d="M0 0h223v200H0z"/>
  <path fill-rule="evenodd" clip-rule="evenodd" d="M103.6 7.1c-6.2.8-9 1.2-12.3 2A93.8 93.8 0 0 0 17 113.8a94.3 94.3 0 0 0 95.2 80 96.2 96.2 0 0 0 78.4-40.6 92 92 0 0 0-3.4-110.4 96.6 96.6 0 0 0-83.6-35.8ZM75.3 84.8c3.4-.8 6.7-5 8-10.2.4-1.3.7-3.8.8-5.8.2-3.2.3-3.5.5-2.5a42.7 42.7 0 0 1-.3 12.5c-1.1 3.5-5 8.3-8 10.1l-1.4.8-13.5.2-13.6.1 15.5 19c8.5 10.4 15.5 19 15.7 19l.8-1.3a9.4 9.4 0 0 1 6.8-4.7c2.7-.2 6.4 2 8 5 1.3 2.7 1.3 3.5 0 11.3-1 5.7-1.2 7.3-1 7.7a154.7 154.7 0 0 0 8.5 9.8 127.6 127.6 0 0 1 .3-17.5c.8-1.5 1.5-1.7 1.7-.4l.2 11v10.2l3 3.6 2.8 3.5.1-13.7c.2-12.7.2-13.7.7-14.7l.6-1 .5.7c.3.4.7 1 .7 1.6.1.5.3 6.8.4 14l.2 13.1 3-3.5 2.8-3.5v-10.7c0-5.8 0-10.8.2-11 .3-.8.9-.6 1.5.3.5.7.5 1.4.5 9.6v9l4.4-5.4 4.3-5.3-1.1-7c-.7-3.8-1.2-7.3-1.2-7.7 0-2.9 2.6-6.7 5.5-8.2 1.8-.9 4.4-1 6.1-.2 1.6.8 4 3.1 4.6 4.5l.5 1.2 6-7.4a64887.3 64887.3 0 0 1 24.8-30.6c.1-.3-2-.4-13.4-.5h-13.6l-1.5-1-3-2.6c-3.5-3.5-5-7-5.3-11.6-.2-3.1.1-8.4.5-8.4.1 0 .3 1.4.4 3.2.2 3.8.8 6.2 2.1 9 1.6 3.4 4.2 5.8 6.7 6.4l.9.2V58.4l.1-26.6 3.3 2a82.2 82.2 0 0 1 26.8 25.6 79 79 0 0 1 11.5 49.7 77.1 77.1 0 0 1-30.4 52.8 80.6 80.6 0 0 1-110.8-13 80.8 80.8 0 0 1-14-26.4 68 68 0 0 1-3.1-22.5 66 66 0 0 1 2.3-19C40 61.1 53.3 44 71.6 33.4l2.7-1.6.1 26.6V85l.9-.2Zm17.1 8.8c5.9 1.5 11.3 4.8 13 7.9.7 1.4.7 3.4 0 4.5-1.5 1.8-3.7 2.7-8.3 3.3-4.8.5-9.6-.2-12.7-1.9-4.2-2.4-6.5-7.9-4.7-11.4 1.6-3 6.6-4 12.7-2.4Zm47.8-.2c1.3.4 2.8 1.6 3.5 2.6.8 1.3.6 4.7-.3 6.6-1.5 3-4 5-7.6 6.1-1.8.6-2.7.7-6.4.6-4.4 0-7-.4-9-1.5-5.4-2.7-3.2-8.2 4.7-12 5.7-2.7 11.4-3.6 15-2.4Zm-30.9 22.8a611 611 0 0 0-.5 5.9 16 16 0 0 1-.7 4c-.1 0-1 0-1.8-.2-1.4-.4-1.5-.4-1.6-1.3-.1-1 .5-3.3 1.6-5.4 1-2.1 2.9-5 3-5 .2 0 .1.9 0 2Zm6.2 0c2.3 4 3.5 7.4 3.2 8.7-.1.5-.5.7-1.7 1-.9.2-1.7.2-1.8 0-.2 0-.5-2.4-.7-5.2l-.6-5.8c-.2-1.3.3-.9 1.6 1.3Z" fill="#000"/>
</svg>
