<svg width="234" height="234" fill="none" xmlns="http://www.w3.org/2000/svg">
  <path fill-rule="evenodd" clip-rule="evenodd" d="M15.7 1.5C1.7 6.4-4.3 24 3.8 35.9 5 37.7 23.3 56.5 44.6 78L83 116.4 43 156.8C3.5 196.4 2.8 197.2 1.2 203a22 22 0 0 0 1.5 17.7c3.7 7.3 13 13 21.2 13a32 32 0 0 0 7.4-1.7c4.4-1.4 9.2-5.9 45.1-41.7l40.3-40 40.2 40c39.6 39.6 40.4 40.2 46.2 41.9 3.7 1 7.3 1.5 9.8 1a23.7 23.7 0 0 0 19.3-30.7c-1.6-5-4.5-8-41.9-45.6l-40-40.2 39-39.3c26.2-26.2 40-40.7 41.5-43.7 3-6 3-14.8 0-20.7C225.3 1.8 211-3 200.3 2.4a945 945 0 0 0-42.9 40.8c-21.9 21.7-40.2 39.4-40.6 39.4-.4 0-18.7-17.7-40.7-39.4a911 911 0 0 0-43-41c-5.2-2.7-11.1-3-17.3-.7Z" fill="#EEE"/>
</svg>
