<svg width="234" height="234" viewBox="0 0 234 234" fill="none" xmlns="http://www.w3.org/2000/svg">
<path fill-rule="evenodd" clip-rule="evenodd" d="M15.6806 1.47361C1.75564 6.38961 -4.28636 23.9726 3.83764 35.9376C5.00764 37.6616 23.3316 56.5036 44.5566 77.8096L83.1477 116.549L42.9976 156.81C3.49563 196.422 2.82064 197.167 1.15664 202.948C-0.759362 209.606 -0.322356 214.686 2.67264 220.556C6.44264 227.945 15.6387 233.572 23.9457 233.572C25.2537 233.572 28.5416 232.837 31.2526 231.938C35.6576 230.478 40.4556 226.047 76.4306 190.216L116.681 150.128L156.931 190.267C196.531 229.757 197.276 230.432 203.057 232.096C206.8 233.173 210.373 233.557 212.899 233.153C227.668 230.791 236.707 216.39 232.177 202.44C230.553 197.44 227.686 194.314 190.33 156.816L150.226 116.561L189.352 77.3156C215.501 51.0876 229.243 36.5796 230.787 33.5716C233.852 27.6016 233.89 18.7766 230.876 12.9186C225.157 1.80362 210.946 -3.08639 200.181 2.35561C198.531 3.18961 179.244 21.5796 157.322 43.2216C135.399 64.8646 117.111 82.5716 116.681 82.5716C116.251 82.5716 97.9627 64.8646 76.0396 43.2216C54.1176 21.5796 34.7256 3.12262 32.9476 2.20562C27.7726 -0.463379 21.8746 -0.713389 15.6806 1.47361Z" fill="#EEEEEE"/>
</svg>
