<svg width="552" height="414" fill="none" xmlns="http://www.w3.org/2000/svg">
  <path fill="#fff" d="M0 0h552v414H0z"/>
  <path d="m195.2 98.66 2.27.06h8.34a16.24 16.24 0 0 1 .07 2 11.18 11.18 0 0 1-.27 1.8 3.97 3.97 0 0 0-.74-1.6c-.3-.36-.6-.63-.92-.8-.36-.19-.75-.3-1.15-.3-.54.02-.95.06-1.25.13-.3.06-.54.16-.7.27-.18.12-.3.26-.4.41l-.25.5a3 3 0 0 0-.22.71c-.06.28-.13.65-.2 1.12a81.8 81.8 0 0 0-.17 1.81 7.21 7.21 0 0 0 1.37-.52c.14-.08.25-.15.31-.22.06-.08.13-.22.24-.43a83.6 83.6 0 0 0 .82-2.03c.02.6.04 1.1.04 1.5a19.02 19.02 0 0 0 .04 1.65v1.85c0 .46.03 1.04.05 1.74a9.7 9.7 0 0 0-.74-1.78 1.7 1.7 0 0 0-.27-.35l-.37-.08a4.27 4.27 0 0 0-1.35.08c-.04.72-.05 1.3-.02 1.74.04.43.1.76.16 1 .06.27.14.46.23.58.12.12.35.22.7.3a5.68 5.68 0 0 0 2.58-.16c.47-.13.89-.35 1.25-.65a8.95 8.95 0 0 0 1.74-2.17c.33-.5.65-1.09.96-1.8a77.62 77.62 0 0 0-.18 2.39l-.06.63a24 24 0 0 1-.2 1.68c-.04.41-.12.95-.2 1.6a690.3 690.3 0 0 0-5.98.15 63.6 63.6 0 0 0-3.66.34c.07-.9.12-1.72.14-2.5a77.7 77.7 0 0 0 .08-4.05c.06-1.5.04-2.7-.08-3.63a5.55 5.55 0 0 0-.4-1.78 3.94 3.94 0 0 0-.83-.7c-.2-.14-.47-.3-.78-.49Zm14.51 5.43c.07-.08.1-.22.12-.43.02-.22.08-.47.15-.74a2.94 2.94 0 0 1 1.47-1.7 3.54 3.54 0 0 1 2.56-.41 4 4 0 0 1 1.1.43c.34.2.66.4.95.64.2.16.35.39.47.69.12.28.2.6.27.97s.11.75.14 1.15a17.76 17.76 0 0 1 .1 2.17 5 5 0 0 0 .07.75 2.1 2.1 0 0 0 1.17 1.56 3.22 3.22 0 0 0 .63.25c.13.05.22.05.27 0a10.35 10.35 0 0 1-.8 1.49l-.2.25a3.33 3.33 0 0 1-.87-.49 4.66 4.66 0 0 1-.72-.58l-.3-.34a1.49 1.49 0 0 1-.23-.39 4.45 4.45 0 0 1-1.7 1.58 5.4 5.4 0 0 1-1.64.53 4.2 4.2 0 0 1-2.95-.66 3.46 3.46 0 0 1-.74-.74c-.2-.29-.34-.62-.43-.98-.08-.38-.07-.8.02-1.25a2.8 2.8 0 0 1 1.32-1.91c.33-.2.7-.35 1.1-.45.4-.1.82-.18 1.25-.22a3.8 3.8 0 0 1 1.91.35 2 2 0 0 1 .8.6 22.37 22.37 0 0 0-.15-2.59c-.05-.26-.1-.44-.14-.55l-.21-.3a1.17 1.17 0 0 0-.26-.32 1.2 1.2 0 0 0-.94-.33.91.91 0 0 0-.52.17c-.13.1-.24.23-.31.37a1.38 1.38 0 0 0-.1.84c.02.08.06.17.11.26l.22.25c.09.1.21.17.37.24a43.14 43.14 0 0 1-1.91.21c-.15.01-.32.04-.51.08l-.63.1-.86.15a24.19 24.19 0 0 0 .4-.48l.15-.22Zm2.93 2.32a2 2 0 0 0-.7.18c-.24.1-.44.23-.63.41-.18.17-.34.37-.47.6a1.57 1.57 0 0 0 .02 1.47 1.82 1.82 0 0 0 1.3.72c.27.03.53 0 .8-.08a2.46 2.46 0 0 0 1.26-1.09c.16-.25.27-.49.34-.72.06-.25.07-.45.01-.6-.1-.35-.33-.58-.7-.71a3 3 0 0 0-1.23-.18Zm14.96-5.56a41.16 41.16 0 0 0-.53 1.4l-.17.55-.18.63-.25.78-.33 1.07c-.1-.62-.3-1.12-.57-1.48a3.87 3.87 0 0 0-.84-.88c-.34-.24-.7-.4-1.1-.51-.7-.12-1.2-.1-1.52.04a1.2 1.2 0 0 0-.62.55l-.18.35a1.6 1.6 0 0 0-.16.84c.02.14.08.26.18.35.07.06.24.15.51.27l.98.37a48.31 48.31 0 0 1 2.48.9c.39.16.73.31 1.01.47.29.16.48.3.57.43a4.08 4.08 0 0 1 .47 1.23 2.59 2.59 0 0 1-.18 1.56c-.13.26-.34.5-.62.73-.28.22-.65.4-1.12.54a3.5 3.5 0 0 1-1.58.14c-.5-.08-.97-.2-1.4-.35-.42-.16-.79-.3-1.1-.45-.31-.16-.53-.22-.66-.2-.15.03-.3.1-.5.22a7.66 7.66 0 0 0-.93.7c-.11.1-.17.13-.17.1s.01-.1.06-.23l.15-.47a7.55 7.55 0 0 0 .31-1.3l.1-.62a124.45 124.45 0 0 1 .27-1.97 3.67 3.67 0 0 0 .65 1.52 5 5 0 0 0 .4.53 7.82 7.82 0 0 0 1.51.92c.28.1.54.17.78.2.25.02.46 0 .63-.09a.98.98 0 0 0 .43-.42 2.66 2.66 0 0 0 .33-1.39 1.05 1.05 0 0 0-.18-.57c-.07-.09-.25-.2-.54-.35a62.95 62.95 0 0 0-2.2-1 9.94 9.94 0 0 1-2.1-1.1c-.25-.17-.38-.33-.4-.48l-.07-.68a2.56 2.56 0 0 1 .31-1.5c.15-.24.36-.43.63-.6.18-.1.42-.17.72-.22a8.4 8.4 0 0 1 2.13-.04 14 14 0 0 1 2.78.44 1 1 0 0 0 .58.03c.18-.04.38-.13.59-.26.2-.13.42-.36.64-.7Zm-.3 1.17a28.33 28.33 0 0 0 1.24.14 6.38 6.38 0 0 0 1.03 0l.7-.04 1.06-.1a11.3 11.3 0 0 0-.4 1.46 11.82 11.82 0 0 0-.3 2.64c.03.44.09.87.2 1.27.1.4.27.71.5.96.5.5.93.81 1.31.92a1.48 1.48 0 0 0 1.72-.63c.18-.26.31-.5.39-.72a7.56 7.56 0 0 0 .22-3.81c-.12-.7-.4-1.42-.84-2.15a37.76 37.76 0 0 0 1.52.1l.54.04h.51a11.26 11.26 0 0 0 1.43-.1 1890.33 1890.33 0 0 1 .21 6.06c.03.75.04 1.4.04 1.97v1.38c-.01.9-.05 1.5-.11 1.78a4.63 4.63 0 0 1-2.97 3.03 4.2 4.2 0 0 1-1.72.2 6.86 6.86 0 0 1-1.47-.26c-.35-.1-.63-.23-.84-.37a1.5 1.5 0 0 1-.43-.45 2.19 2.19 0 0 1-.17-.49l-.12-.45a.75.75 0 0 0-.23-.37 13.52 13.52 0 0 0-.92-.66c-.16-.1-.31-.2-.47-.26l4.16-.23a1.92 1.92 0 0 0-.35.76.7.7 0 0 0 .02.3c.05.15.14.32.27.5.14.2.33.35.55.45.22.12.48.16.78.12.31-.04.66-.2 1.05-.49.33-.25.6-.64.82-1.2a8.5 8.5 0 0 0 .43-1.96c.1-.85.09-1.96-.06-3.34a4.5 4.5 0 0 1-.95 1.85c-.4.43-.8.74-1.21.94-.47.23-.96.36-1.47.37a7.14 7.14 0 0 1-1.74-.25 3.56 3.56 0 0 1-1.19-.63 2.96 2.96 0 0 1-.74-.92c-.17-.36-.3-.77-.37-1.2a7.65 7.65 0 0 1-.12-1.34v-1.27c.02-.39.02-.74.02-1.05 0-.33-.03-.59-.1-.78a3.6 3.6 0 0 0-.74-1.13c-.2-.21-.42-.4-.68-.59Zm10.7-3.75c.42.05.81.1 1.16.12l.88.07.77.06a26.12 26.12 0 0 0 2.09-.07 47.8 47.8 0 0 0 1.77-.14 4.24 4.24 0 0 0-1.33 1.11c-.14.18-.24.37-.3.55-.05.25-.03.73.03 1.44a34.83 34.83 0 0 0 .72 4.7l.53 2.6a40.93 40.93 0 0 0 1.08-3.47 55.37 55.37 0 0 0 .66-2.71l.4-1.97c.18-.81.39-1.8.63-3l.7.1a112.7 112.7 0 0 0 .55 5.73c.06.37.13.81.24 1.3.09.42.2.94.35 1.55.14.6.33 1.27.57 2.03a854.26 854.26 0 0 0 1.72-6.88c.14-.65.22-1.08.25-1.3a2.03 2.03 0 0 0-.18-.73 3.18 3.18 0 0 0-1.29-1.4l1.94.06h3.71l1.64-.06a12.68 12.68 0 0 0-2.2 1.44c-.24.21-.41.39-.52.53a36.66 36.66 0 0 0-.86 3.22l-.46 2.07a766.17 766.17 0 0 0-1.33 6.5l-3.38-.34-1.45-6.08a271.66 271.66 0 0 0-.82 4.28 10.53 10.53 0 0 0-.17 1.52l-.06.47c-.01.17-.03.33-.06.47h-3.46c-.34-1.48-.64-2.8-.92-3.93a205.18 205.18 0 0 0-1.63-6.7c-.27-.93-.45-1.51-.57-1.73l-.35-.38-.43-.42a28.6 28.6 0 0 0-.63-.61Zm21.87 10.59c.36 0 .7-.04 1.01-.12.26-.07.51-.17.75-.31.24-.16.4-.39.48-.69a47.04 47.04 0 0 1 1.14.22l.37.08.37.07.47.1.68.12c-.2-.03-.4 0-.6.06-.2.06-.39.13-.57.21a3.15 3.15 0 0 0-1 .69c-.14.15-.35.3-.62.44-.28.15-.64.27-1.1.38-.44.09-1.01.12-1.71.1a4.45 4.45 0 0 1-3.52-1.48c-.35-.43-.6-.88-.76-1.36a4.9 4.9 0 0 1-.26-1.35c0-.41.12-.85.38-1.3.25-.46.62-.88 1.09-1.25a6.43 6.43 0 0 1 3.97-1.29c.46 0 .9.05 1.28.17a4.56 4.56 0 0 1 3.03 2.52 3.97 3.97 0 0 1 .31 1.72 487.12 487.12 0 0 1-3.8.08h-1.55c-.23 0-.54 0-.92.02l-1.38.06c.06.52.22.92.48 1.2.28.28.56.49.86.63.34.16.71.25 1.12.28Zm-1.76-3.52a71.2 71.2 0 0 0 2.2.12h.5c.32 0 .93-.02 1.81-.06a2.6 2.6 0 0 0-.37-1.31c-.2-.3-.4-.52-.63-.66a1.97 1.97 0 0 0-.85-.28c-.85.02-1.48.2-1.9.53-.4.34-.66.9-.76 1.66Zm7.73-7.05a8.56 8.56 0 0 0 1.49.23 10.3 10.3 0 0 0 1.29-.02 23.7 23.7 0 0 0 2.05-.29 11.35 11.35 0 0 0-.73.59l-.29.29c-.17.23-.34.63-.5 1.2-.15.47-.3 1.15-.47 2.02-.16.88-.3 2.03-.43 3.48a8.72 8.72 0 0 1 3.3-2.11c.5-.16.97-.24 1.38-.25.54.03 1 .15 1.39.33a3.9 3.9 0 0 1 1.7 1.37c.18.24.32.46.41.66a6.85 6.85 0 0 1 .14 1.9c-.03.44-.1.9-.22 1.4-.1.48-.28.93-.53 1.35-.23.4-.54.74-.93 1.01a2.5 2.5 0 0 1-1.43.45 7.1 7.1 0 0 1-3.63-.92 4.53 4.53 0 0 1-1.5-1.44v.47l.01.37.04.37c.02.12.05.24.1.37l.18.4c.09.14.2.28.35.42a4.76 4.76 0 0 0-.86-.02l-.47.04a6.55 6.55 0 0 0-1 .16l-.6.13c.04-.11.07-.28.1-.5a47.94 47.94 0 0 0 .15-1.66l.08-.94c.05-.72.1-1.5.14-2.34.04-1.32.04-2.54.02-3.68a28.4 28.4 0 0 0-.08-1.46c-.03-.5-.07-.96-.12-1.39a8.26 8.26 0 0 0-.21-1.17 2.46 2.46 0 0 0-.32-.82Zm2.54 9.51a5.43 5.43 0 0 0 1.37 1.64 3.6 3.6 0 0 0 1.35.67c.48.13.95.14 1.42.03.47-.13.84-.39 1.1-.78a3.97 3.97 0 0 0 .6-3.28 2.12 2.12 0 0 0-.5-.92 1.65 1.65 0 0 0-1.08-.48c-.32 0-.7.09-1.13.27a7.4 7.4 0 0 0-1.35.78c-.52.35-1.11.88-1.78 1.58v.5Zm8.4-9.73a45.34 45.34 0 0 0 2.7.32c.2.02.46.01.76-.04a57.47 57.47 0 0 1 2.09-.31 5.11 5.11 0 0 1 1.99.15 7.3 7.3 0 0 1 2.4 1.04 4.98 4.98 0 0 1 1.97 2.52c.23.57.35 1.24.38 2a10.8 10.8 0 0 1-.32 3.13 6.56 6.56 0 0 1-1.15 2.4 5.3 5.3 0 0 1-1.93 1.57c-.78.38-1.7.58-2.74.62a168.12 168.12 0 0 1-3.38.24l-1.05.04a25.52 25.52 0 0 1-1.91-.08 3.9 3.9 0 0 0 1.17-.8c.12-.13.2-.25.25-.35l.12-.84a149.45 149.45 0 0 0 .39-4.16l.12-1.4a22.1 22.1 0 0 0 .04-3.39 3.8 3.8 0 0 0-.16-.8 2.19 2.19 0 0 0-.3-.5 7.06 7.06 0 0 0-.54-.57c-.22-.24-.52-.5-.9-.79Zm4.12 7.2c.03 1.15.09 2.04.18 2.67.1.6.21 1.06.33 1.37.14.33.3.53.47.6.25 0 .53-.1.84-.31.31-.22.62-.56.92-1a9.62 9.62 0 0 0 1.4-3.98 5.98 5.98 0 0 0-.82-4.05 4 4 0 0 0-.92-1.05c-.3-.25-.54-.37-.7-.37a.81.81 0 0 0-.49.15 2.78 2.78 0 0 0-.96 1.43 10.34 10.34 0 0 0-.29 3.1l.04 1.43Zm14.14 3.59c.37 0 .7-.04 1.02-.12.26-.07.5-.17.74-.31.25-.16.41-.39.49-.69a50.19 50.19 0 0 1 1.13.22l.37.08.37.07.47.1.69.12c-.2-.03-.4 0-.6.06-.2.06-.4.13-.58.21a3.15 3.15 0 0 0-1 .69c-.13.15-.34.3-.62.44a4.4 4.4 0 0 1-1.09.38c-.44.09-1.02.12-1.72.1a4.47 4.47 0 0 1-3.52-1.48 4 4 0 0 1-.76-1.36 4.86 4.86 0 0 1-.25-1.35c-.01-.41.11-.85.37-1.3a4.3 4.3 0 0 1 1.1-1.25 6.43 6.43 0 0 1 3.96-1.29c.47 0 .9.05 1.29.17a4.55 4.55 0 0 1 3.03 2.52c.1.23.19.5.25.8.06.3.08.6.06.92a487.12 487.12 0 0 1-3.81.08h-1.54c-.24 0-.54 0-.92.02l-1.39.06c.07.52.23.92.49 1.2a2.92 2.92 0 0 0 1.97.91Zm-1.75-3.52a71.97 71.97 0 0 0 2.2.12h.49c.33 0 .93-.02 1.82-.06a2.6 2.6 0 0 0-.37-1.31c-.2-.3-.4-.52-.63-.66a1.97 1.97 0 0 0-.86-.28c-.84.02-1.48.2-1.9.53-.4.34-.65.9-.75 1.66Zm6.44-4.1a10.92 10.92 0 0 0 3.3.08l.98-.12a1.9 1.9 0 0 0-.76.72c-.08.13-.13.25-.16.35-.03.1-.02.32.02.65a38.26 38.26 0 0 0 .41 2.48l.27 1.29c.1.39.2.71.28.97.09.26.16.39.21.38.05 0 .13-.14.24-.4l.39-.95a64.2 64.2 0 0 0 .86-2.58 22.17 22.17 0 0 0 .37-1.52 7.25 7.25 0 0 0-.74-.96 38.33 38.33 0 0 1 2.1.2h.51a17.27 17.27 0 0 0 1.88-.14 10.96 10.96 0 0 0-1.33.9c-.14.13-.25.24-.31.33-.1.17-.26.57-.5 1.2l-.38 1.02a223.7 223.7 0 0 1-1.23 3.44c-.28.76-.58 1.62-.92 2.6l-1.9.2-.6-2.06a109.38 109.38 0 0 0-.59-2.26 310.2 310.2 0 0 1-.5-2.54l-.28-1.33a3.9 3.9 0 0 0-.21-.74 4.92 4.92 0 0 0-.7-.64l-.71-.57Z" fill="#000"/>
  <path fill-rule="evenodd" clip-rule="evenodd" d="M147.9 55.76c-2.68 1.4-6.78 5.17-9.12 8.37-4.12 5.65-4.26 8.23-4.84 90.3l-.59 84.49-20.17 25.73C102.08 278.8 93 290.66 93 291c0 5.65 6.18 14.91 13.25 19.86L115 317h322.73l8.76-6.13c8.7-6.1 14.58-16.72 11.83-21.42-.76-1.28-9.83-13.14-20.16-26.34l-18.78-24-.59-84.59c-.58-82.17-.71-84.74-4.84-90.4-2.33-3.2-6.44-6.96-9.12-8.36-7.04-3.68-249.88-3.68-256.93 0Zm242.47 91.7-.54 65.44H162.9l-.53-65.44-.54-65.45H390.9l-.53 65.45ZM341.46 279.9c1.5 5.1 2.74 10.43 2.75 11.85.03 2.01-14.92 2.58-68.07 2.58h-68.1l1.37-7.44c.75-4.09 2.2-9.67 3.23-12.4l1.85-4.96 62.12.55 62.12.54 2.73 9.28Z" fill="#000"/>
  <path fill-rule="evenodd" clip-rule="evenodd" d="M194.52 143.85v1.86h16.32V142h-16.32v1.85Zm0 5.2v1.84h24.23v-3.7h-24.23v1.85Zm26.46-.01v1.85h18.98c.1 0 .18-.81.18-1.81v-1.82l-9.58-.04-9.58-.04v1.86Zm22 0v1.85H286v-3.7h-43v1.85Zm-21.75 6v1.93h10.63v-3.85h-10.63v1.92Zm14.01-1.81a9.1 9.1 0 0 0-.07 1.89l.03 1.78 48.03.03 48.03.04v-3.85H283.3c-26.37 0-48 .05-48.06.1Zm99.9-.02c-.1.06-.17.93-.17 1.93v1.83h24.74l-.07-1.89-.07-1.89-12.14-.04a386 386 0 0 0-12.3.06Zm-147.05 5.55c-4.09.3-6.63 1.29-8.05 3.16-.88 1.16-1.1 2.37-1.1 6.24 0 6.31-.77 8.44-3.74 10.4-.66.44-1.2.84-1.2.88 0 .05.53.44 1.17.87a7.66 7.66 0 0 1 3.06 3.67c.44 1.06.54 1.9.7 6.2.22 5.43.3 5.75 1.8 7.25.96.96 2.38 1.64 4.3 2.07 1.63.37 5.13.59 5.38.34.1-.1.23-.8.31-1.56.17-1.69-.03-1.88-1.91-1.88a6.6 6.6 0 0 1-3.66-.98c-1.03-.79-1.14-1.37-1.14-6.43 0-4.23-.05-4.94-.45-5.78a9.34 9.34 0 0 0-2.76-3.27l-.6-.33.96-.68a6.82 6.82 0 0 0 2.52-3.11c.43-.98.5-1.5.43-3.8-.17-6.2-.12-7.23.34-7.94.77-1.2 2.53-1.92 4.65-1.92 1.46 0 1.71-.26 1.71-1.75 0-.71-.09-1.36-.19-1.45-.27-.25-1.03-.3-2.53-.2Zm172.65.15c-.38.24-.43 3.04-.06 3.18.14.05.84.12 1.55.16 4.37.23 5.43 1.8 4.92 7.25-.45 4.73.38 7.28 2.93 9.01.4.28.74.56.74.62 0 .06-.4.38-.9.7a7 7 0 0 0-2.48 3.08c-.46 1.04-.54 2.88-.33 8 .12 2.93-.02 3.54-1.05 4.46-.78.69-1.91 1.04-3.65 1.14-.81.04-1.6.16-1.74.27-.15.1-.23.78-.18 1.64l.07 1.46 2.1-.02c4.74-.05 7.95-1.53 9.1-4.2.24-.57.4-2.32.53-5.86.17-4.4.26-5.18.7-6.17a8.75 8.75 0 0 1 3.03-3.6c.54-.35.98-.71.98-.8 0-.1-.43-.44-.95-.76a8.28 8.28 0 0 1-3.04-3.52c-.46-1.01-.55-1.77-.72-6.12-.2-5.2-.31-5.75-1.47-7.18-.74-.92-2.9-2.07-4.64-2.46-1.74-.4-4.99-.56-5.44-.28Zm-117.73 2.14-.05 1.85h77.66v-3.71h-77.55l-.06 1.86Zm80.34 0v1.85h22.76l-.03-1.85-.04-1.86h-22.69v1.86Zm-102.12 5.93v1.85h5.68v-3.71h-5.68v1.86Zm10.13 0v1.85h120.67v-3.71H231.36v1.86Zm123.63 0v1.85h4.7v-3.71H355v1.86Zm-160.47 6v1.93h13.85v-3.86h-13.85v1.93Zm17.23-1.82c-.06.06-.09.91-.07 1.9l.03 1.77 8.34.04 8.35.04v-3.86h-8.27c-4.55 0-8.32.05-8.38.11Zm21.6 1.82v1.93h6.92v-3.86h-6.93v1.93Zm-12.12 6v1.86h25.46v-3.71h-25.46v1.85Zm29.92 0v1.86h50.47l-.06-1.86-.05-1.85h-50.36v1.85Zm51.21 0-.06 1.86h8.72l-.07-1.86-.07-1.85h-8.45l-.07 1.85Zm-68.28 5.93v1.85h4.43l-.03-1.85-.03-1.85h-4.37v1.85Zm7.44 0-.03 1.85h17.1l-.07-1.81-.08-1.82-8.45-.04-8.44-.03-.03 1.85Zm19.44-1.74c-.05.06-.11.9-.13 1.85l-.02 1.74H332v-3.7h-35.47c-19.5 0-35.51.05-35.57.11Zm75 1.74v1.85h16.8v-3.7h-16.8v1.85Zm-101.88 6v1.93h18.05V189h-18.05v1.92Zm21.27 0v1.93h62.06V189h-62.06v1.92Zm69.34-1.73c-.07.1-.1.96-.06 1.9l.07 1.69 17.5.03 17.5.04V189h-17.45c-14.15 0-17.46.03-17.56.2Zm-90.6 7.74v1.85l13.78-.04 13.78-.03.03-1.82.03-1.81h-27.63v1.85Zm32.14 0v1.85h63.54v-3.7h-63.54v1.85Zm-45 5.93v1.85h74.92v-3.71h-74.92v1.86Zm-26.7 6v1.93h9.14v-3.86h-9.15v1.93Zm12.6 0v1.93h113.25v-3.86H207.13v1.93Z" fill="#000"/>
  <path d="M145.08 319.98c2.19.07 4 .11 5.44.14h20.01c.06.63.11 1.24.14 1.83a13.9 13.9 0 0 1 .05 2.96c-.03.43-.08.9-.14 1.4l-.19 1.4c-.06.5-.17 1.02-.33 1.56a9.57 9.57 0 0 0-1.78-3.85 7.65 7.65 0 0 0-2.2-1.92 6.2 6.2 0 0 0-2.77-.75c-1.28.06-2.28.17-3 .33a4.7 4.7 0 0 0-1.69.65c-.4.29-.71.61-.93.99-.19.34-.4.73-.61 1.17-.19.38-.36.95-.52 1.74-.15.65-.31 1.54-.47 2.67a195.1 195.1 0 0 0-.42 4.36 17.86 17.86 0 0 0 3.28-1.27c.35-.19.6-.36.75-.51.13-.2.32-.54.57-1.04l.75-1.78c.34-.75.75-1.78 1.21-3.1.07 1.45.1 2.65.1 3.62 0 .94.01 1.7.04 2.3 0 .68.02 1.23.05 1.64v4.45l.14 4.17a23.02 23.02 0 0 0-1.03-2.72 10.3 10.3 0 0 0-.75-1.55c-.25-.4-.47-.68-.66-.84a8.5 8.5 0 0 0-.89-.19 10.22 10.22 0 0 0-3.23.19c-.1 1.72-.1 3.11-.05 4.17.1 1.03.22 1.83.38 2.4.15.65.34 1.12.56 1.4.28.28.84.52 1.69.7a13.62 13.62 0 0 0 6.19-.37 8.06 8.06 0 0 0 3-1.55 21.6 21.6 0 0 0 2.1-2.25 32.9 32.9 0 0 0 2.07-2.95 30.24 30.24 0 0 0 2.3-4.31 167.96 167.96 0 0 0-.43 5.71l-.14 1.5a56.96 56.96 0 0 1-.47 4.03c-.12 1-.3 2.29-.51 3.85l-4.17.1c-1.32 0-2.47 0-3.47.04a561.55 561.55 0 0 0-6.7.23 155.18 155.18 0 0 0-8.77.8c.15-2.12.26-4.12.33-6a122.54 122.54 0 0 0 .18-9.71c.16-3.59.1-6.5-.18-8.71-.28-2.22-.61-3.64-.99-4.27a9.38 9.38 0 0 0-1.97-1.68c-.5-.35-1.12-.74-1.87-1.18Zm34.83 13.04c.15-.2.25-.54.28-1.04.06-.53.19-1.12.37-1.78a7.1 7.1 0 0 1 3.52-4.08 8.5 8.5 0 0 1 3.19-1.12 8.43 8.43 0 0 1 2.95.14c.94.22 1.81.56 2.62 1.03.85.47 1.61.99 2.3 1.55.47.37.84.92 1.13 1.64.28.69.5 1.47.65 2.34.16.88.27 1.8.33 2.77.1.94.16 1.86.19 2.76.03.88.04 1.7.04 2.44.04.72.1 1.31.2 1.78a5.03 5.03 0 0 0 2.8 3.75c.38.2.7.33.99.43.19.09.36.15.51.18.32.13.54.13.66 0l-.51 1.13c-.16.31-.29.58-.38.8a9.19 9.19 0 0 1-1.03 1.63 10 10 0 0 0-.47.61 8.03 8.03 0 0 1-2.1-1.17 14.1 14.1 0 0 1-.95-.65 5.9 5.9 0 0 1-.8-.75l-.7-.8c-.22-.28-.4-.6-.56-.94a10.95 10.95 0 0 1-4.08 3.8c-1.12.6-2.44 1.01-3.94 1.26-1.46.25-3.09.08-4.87-.51a8.5 8.5 0 0 1-2.2-1.08 8 8 0 0 1-1.78-1.78 7.23 7.23 0 0 1-1.04-2.34 7.5 7.5 0 0 1 .05-3 6.76 6.76 0 0 1 3.19-4.6 9.84 9.84 0 0 1 2.62-1.08 18.8 18.8 0 0 1 3-.51 9.1 9.1 0 0 1 4.6.84c.75.31 1.39.8 1.92 1.45-.03-1.65-.1-2.96-.19-3.93-.06-1-.12-1.77-.19-2.3a9.63 9.63 0 0 0-.32-1.31l-.52-.75a2.82 2.82 0 0 0-.6-.75 2.86 2.86 0 0 0-2.26-.8c-.53.03-.95.17-1.26.42a2.7 2.7 0 0 0-.75.9 3.32 3.32 0 0 0-.23 2.01 2.6 2.6 0 0 0 .79 1.22c.22.22.51.4.89.56l-1.92.24c-.57.03-1.05.07-1.46.14l-1.22.14a288.42 288.42 0 0 0-2.72.42l-2.06.37.52-.6.42-.57c.13-.19.25-.36.38-.51Zm7.03 5.57c-.56.04-1.13.18-1.69.43a4.3 4.3 0 0 0-1.5.98c-.44.4-.81.9-1.13 1.45a3.75 3.75 0 0 0 .05 3.52 4.33 4.33 0 0 0 3.1 1.73c.65.07 1.3 0 1.92-.18.6-.22 1.15-.57 1.69-1.04.53-.5.98-1.03 1.35-1.59.38-.6.65-1.17.8-1.73.16-.6.17-1.08.05-1.46a2.53 2.53 0 0 0-1.69-1.68 6.9 6.9 0 0 0-2.95-.43Zm35.9-13.36-.75 1.88a77.9 77.9 0 0 1-.51 1.5l-.42 1.31-.43 1.5c-.15.5-.35 1.13-.6 1.88a354 354 0 0 1-.8 2.57 8.11 8.11 0 0 0-1.36-3.56 9.38 9.38 0 0 0-2.02-2.1 8.37 8.37 0 0 0-2.62-1.23c-1.69-.28-2.9-.25-3.66.1-.75.34-1.25.78-1.5 1.31l-.42.84c-.13.32-.23.64-.33.99a3.8 3.8 0 0 0-.04 1.03c.03.34.17.63.42.84.15.16.56.38 1.22.66l2.34.9a113.07 113.07 0 0 1 5.95 2.15c.94.37 1.75.75 2.44 1.12.69.38 1.14.72 1.36 1.03.19.32.39.74.6 1.27.26.5.43 1.06.52 1.69a6.19 6.19 0 0 1-.42 3.75 5.1 5.1 0 0 1-1.5 1.73 7.9 7.9 0 0 1-2.67 1.31 8.4 8.4 0 0 1-3.8.33 17.8 17.8 0 0 1-3.37-.84c-1-.38-1.88-.74-2.63-1.08-.75-.38-1.28-.53-1.59-.47a3.4 3.4 0 0 0-1.17.52 18.75 18.75 0 0 0-2.25 1.68c-.28.22-.42.3-.42.24s.04-.25.14-.56c.12-.32.25-.7.37-1.13.16-.47.3-.97.42-1.5.16-.56.27-1.1.33-1.6l.24-1.5.23-1.92c.13-.78.27-1.71.42-2.8a8.88 8.88 0 0 0 1.55 3.65c.34.5.67.92.98 1.26.47.44 1.02.85 1.64 1.22.66.38 1.32.7 1.97.99.66.25 1.28.4 1.88.47.6.06 1.1 0 1.5-.2.4-.18.75-.52 1.03-1.02.31-.5.53-1.05.66-1.64.12-.6.17-1.16.14-1.7a2.5 2.5 0 0 0-.43-1.35c-.18-.22-.62-.5-1.3-.84a137.07 137.07 0 0 0-5.3-2.39c-1-.44-1.96-.88-2.86-1.32-.88-.47-1.61-.9-2.2-1.3-.57-.45-.88-.84-.94-1.18-.07-.5-.11-1.05-.15-1.64a6.12 6.12 0 0 1 .75-3.6 4.1 4.1 0 0 1 1.5-1.42 5.39 5.39 0 0 1 1.74-.56 14 14 0 0 1 2.39-.19c.87-.03 1.78 0 2.72.1a30 30 0 0 1 2.67.28 20.44 20.44 0 0 1 3.98.8c.44.15.91.17 1.41.04.44-.1.9-.3 1.4-.6.5-.32 1.02-.88 1.55-1.7Zm-.7 2.82c.63.1 1.19.17 1.69.23.47.03.89.06 1.26.1a15.42 15.42 0 0 0 2.49 0c.44-.04 1-.07 1.69-.1l2.53-.23a26.33 26.33 0 0 0-.94 3.51 28.89 28.89 0 0 0-.7 6.33c.03 1.06.17 2.08.42 3.05.25.94.65 1.7 1.22 2.3 1.18 1.21 2.23 1.95 3.14 2.2a3.56 3.56 0 0 0 4.12-1.5c.44-.63.75-1.2.94-1.74a18.01 18.01 0 0 0 .52-9.14c-.29-1.69-.96-3.4-2.02-5.15a85.46 85.46 0 0 0 3.66.23c.5.03.93.06 1.3.1.35.03.76.03 1.23 0a26.9 26.9 0 0 0 3.42-.24l.33 8.2c.1 2.38.15 4.49.19 6.33.06 1.81.09 3.4.09 4.74v3.32a25.76 25.76 0 0 1-.28 4.27c-.25.97-.7 1.94-1.36 2.9-.63.97-1.42 1.83-2.4 2.58-.96.79-2.09 1.38-3.37 1.79a9.9 9.9 0 0 1-4.12.46 16.39 16.39 0 0 1-3.52-.6 7.18 7.18 0 0 1-2.01-.9 3.7 3.7 0 0 1-1.03-1.07 5.3 5.3 0 0 1-.43-1.18c-.1-.37-.18-.73-.28-1.07a1.8 1.8 0 0 0-.56-.9 17.43 17.43 0 0 0-3.33-2.2l9.99-.56a4.61 4.61 0 0 0-.85 1.83c-.03.28-.01.51.05.7.12.38.34.78.66 1.22a3.39 3.39 0 0 0 3.18 1.36c.75-.1 1.6-.49 2.53-1.17a6.6 6.6 0 0 0 1.97-2.86c.44-1.13.78-2.7 1.03-4.74.25-2.03.2-4.7-.14-8.01a10.83 10.83 0 0 1-2.3 4.45 10.15 10.15 0 0 1-2.9 2.25c-1.13.56-2.3.86-3.52.9a17.06 17.06 0 0 1-4.17-.62 8.52 8.52 0 0 1-2.86-1.5 7.1 7.1 0 0 1-1.78-2.2c-.4-.88-.7-1.85-.89-2.9a18.34 18.34 0 0 1-.28-3.2v-3.04c.03-.94.05-1.78.05-2.53 0-.78-.08-1.4-.24-1.88a7.6 7.6 0 0 0-.75-1.4 9.89 9.89 0 0 0-2.67-2.72Zm25.64-9c1.03.12 1.97.22 2.81.28.82.06 1.52.12 2.11.19l1.83.14c.56 0 1.28-.02 2.16-.05l2.86-.14c1.15-.06 2.57-.17 4.26-.33-.81.47-1.48.94-2.01 1.4-.5.48-.9.9-1.18 1.27-.34.44-.59.88-.75 1.31-.09.6-.06 1.75.1 3.47.06.72.15 1.61.28 2.68l.56 3.7.9 4.87 1.26 6.29a101.48 101.48 0 0 0 2.58-8.35l.8-3 .8-3.51a10682.96 10682.96 0 0 0 2.48-11.9l1.68.22c.16 2.22.31 4.18.47 5.86a725.78 725.78 0 0 1 .85 7.88c.12.9.3 1.95.56 3.14l.84 3.7a85 85 0 0 0 1.36 4.88l1.5-5.96c.47-1.75.86-3.3 1.17-4.64.35-1.34.63-2.5.85-3.47.25-.96.45-1.78.6-2.43.35-1.57.55-2.61.62-3.14a4.86 4.86 0 0 0-.43-1.74 7.72 7.72 0 0 0-1.03-1.64 7.92 7.92 0 0 0-2.06-1.73l4.64.14h8.91l3.93-.14a30.24 30.24 0 0 0-3.32 1.97c-.85.59-1.5 1.09-1.97 1.5-.57.5-.97.92-1.22 1.26a87.99 87.99 0 0 0-2.06 7.74l-1.13 4.96a1541.04 1541.04 0 0 0-3.19 15.61l-8.1-.84-3.48-14.58a647.25 647.25 0 0 0-1.96 10.27 25.32 25.32 0 0 0-.43 3.65c-.03.35-.07.72-.14 1.13a9 9 0 0 1-.14 1.12h-8.3a771.9 771.9 0 0 0-2.2-9.42 526.67 526.67 0 0 0-3-12.47 80.76 80.76 0 0 0-.93-3.6 28.35 28.35 0 0 0-1.36-4.18c-.22-.25-.5-.55-.85-.89l-1.03-1.03a77.4 77.4 0 0 0-1.5-1.45Zm52.5 25.4c.88 0 1.69-.1 2.44-.28.62-.15 1.22-.4 1.78-.75.6-.37.98-.92 1.17-1.64l1.6.33a21.08 21.08 0 0 1 2.01.37c.25.07.55.13.9.2.3.05.68.13 1.12.23.47.06 1.01.15 1.64.28a3.35 3.35 0 0 0-1.46.14c-.46.15-.92.33-1.36.51a7.68 7.68 0 0 0-2.39 1.64c-.34.38-.84.74-1.5 1.08-.65.35-1.53.64-2.62.9-1.06.21-2.44.29-4.13.23a12.75 12.75 0 0 1-5.1-1.08 10.65 10.65 0 0 1-3.33-2.49 9.57 9.57 0 0 1-1.83-3.23 11.76 11.76 0 0 1-.61-3.23c-.03-1 .26-2.05.89-3.14.63-1.1 1.5-2.1 2.63-3a13.96 13.96 0 0 1 4.17-2.2c1.62-.6 3.4-.9 5.34-.9 1.13 0 2.16.14 3.1.42a10.96 10.96 0 0 1 4.73 2.54c.6.53 1.1 1.07 1.5 1.64a10.9 10.9 0 0 1 1.64 3.8c.16.71.2 1.45.14 2.2a1215.05 1215.05 0 0 1-9.14.18h-3.71a248.75 248.75 0 0 0-5.53.19 5.16 5.16 0 0 0 1.18 2.9 7.55 7.55 0 0 0 2.06 1.5c.81.38 1.7.6 2.67.66Zm-4.22-8.43a176.07 176.07 0 0 0 4.17.23c.47.03.85.05 1.13.05h1.17c.78 0 2.24-.05 4.36-.14a6.25 6.25 0 0 0-.89-3.14 5.31 5.31 0 0 0-1.5-1.6 4.7 4.7 0 0 0-2.06-.65c-2.03.03-3.55.45-4.55 1.26-.97.81-1.58 2.14-1.83 3.99Zm18.56-16.93c.72.2 1.38.33 1.97.43l1.6.14a17.68 17.68 0 0 0 3.1-.05c1.15-.1 2.79-.33 4.91-.7a26.3 26.3 0 0 0-1.73 1.4l-.7.7c-.41.57-.82 1.52-1.22 2.87a54.4 54.4 0 0 0-1.13 4.87c-.37 2.1-.72 4.88-1.03 8.34a20.97 20.97 0 0 1 7.92-5.06 12.5 12.5 0 0 1 3.33-.6c1.28.09 2.4.35 3.33.79.97.4 1.78.9 2.44 1.5a7.85 7.85 0 0 1 1.64 1.78c.43.6.76 1.13.98 1.6.13.3.22.88.28 1.73.1.81.11 1.75.05 2.81a19.69 19.69 0 0 1-.52 3.38 10.73 10.73 0 0 1-1.26 3.23 7.61 7.61 0 0 1-2.25 2.44 6.19 6.19 0 0 1-3.42 1.08c-1.6 0-3.14-.2-4.64-.57a17.05 17.05 0 0 1-4.08-1.64 10.87 10.87 0 0 1-3.61-3.47v1.13a26.97 26.97 0 0 0 .14 1.78c.03.28.1.58.23.9.1.24.24.55.43.93.21.34.5.69.84 1.03-.35-.03-.69-.05-1.03-.05a5.74 5.74 0 0 0-1.03 0l-1.13.1a17.23 17.23 0 0 0-2.39.37c-.47.1-.95.2-1.45.33.1-.28.17-.69.23-1.22a117.68 117.68 0 0 0 .38-3.98l.18-2.25c.13-1.72.24-3.6.33-5.63.1-3.15.11-6.1.05-8.81-.03-1.16-.1-2.33-.19-3.52a49.6 49.6 0 0 0-.28-3.32c-.12-1.07-.3-2-.51-2.82a5.86 5.86 0 0 0-.75-1.97Zm6.1 22.83a14 14 0 0 0 1.6 2.35 13.2 13.2 0 0 0 1.68 1.59 8.76 8.76 0 0 0 3.23 1.6c1.16.3 2.3.34 3.43.09a4.5 4.5 0 0 0 2.62-1.88 9.51 9.51 0 0 0 1.74-5.34 6.88 6.88 0 0 0-.29-2.53 4.95 4.95 0 0 0-1.21-2.2 3.92 3.92 0 0 0-2.58-1.18 7.1 7.1 0 0 0-2.72.66c-.9.37-1.99 1-3.24 1.87a26.89 26.89 0 0 0-4.26 3.8v1.17Zm20.15-23.34a111.14 111.14 0 0 0 6.47.75c.5.06 1.11.03 1.83-.1.75-.12 1.55-.25 2.4-.37.84-.16 1.71-.28 2.62-.38.9-.09 1.78-.09 2.62 0 .56.07 1.28.2 2.16.38a17.45 17.45 0 0 1 5.76 2.49c1 .65 1.91 1.48 2.72 2.48.82 1 1.49 2.19 2.02 3.56.53 1.38.83 2.99.89 4.83.1 2.75-.16 5.25-.75 7.5a15.7 15.7 0 0 1-2.77 5.76 12.7 12.7 0 0 1-4.64 3.75 16.2 16.2 0 0 1-6.56 1.5 391.03 391.03 0 0 1-8.1.57l-2.54.1a61.56 61.56 0 0 1-4.6-.2 9.4 9.4 0 0 0 1.74-1.03c.47-.34.83-.64 1.08-.89.28-.31.48-.6.6-.84.07-.35.16-1.02.29-2.02a340.19 340.19 0 0 0 .94-9.98l.28-3.33a55.65 55.65 0 0 0 .09-8.16 8.28 8.28 0 0 0-.37-1.92 5.16 5.16 0 0 0-.7-1.22c-.32-.37-.76-.83-1.32-1.36a17.88 17.88 0 0 0-2.15-1.87Zm9.9 17.25c.06 2.78.2 4.92.42 6.42.25 1.47.51 2.56.8 3.28.34.81.71 1.3 1.12 1.45.6 0 1.26-.25 2.01-.75a9.2 9.2 0 0 0 2.2-2.39 16.96 16.96 0 0 0 2.02-3.98c.63-1.6 1.08-3.45 1.36-5.58.28-2.12.2-4-.23-5.62a14.07 14.07 0 0 0-1.74-4.08 9.53 9.53 0 0 0-2.2-2.53c-.75-.6-1.31-.9-1.69-.9-.43 0-.82.13-1.17.38-.34.22-.83.74-1.45 1.55-.31.44-.6 1.06-.85 1.87-.21.72-.4 1.68-.56 2.86-.15 1.19-.2 2.72-.14 4.6l.1 3.42Zm33.93 8.62c.88 0 1.7-.1 2.44-.28.63-.15 1.22-.4 1.78-.75.6-.37.99-.92 1.17-1.64l1.6.33a20.86 20.86 0 0 1 2.01.37c.25.07.55.13.9.2.3.05.68.13 1.12.23.47.06 1.01.15 1.64.28a3.34 3.34 0 0 0-1.45.14c-.47.15-.93.33-1.36.51a7.68 7.68 0 0 0-2.4 1.64c-.34.38-.84.74-1.5 1.08-.65.35-1.52.64-2.62.9a18.5 18.5 0 0 1-4.12.23 12.75 12.75 0 0 1-5.11-1.08 10.64 10.64 0 0 1-3.33-2.49 9.57 9.57 0 0 1-1.83-3.23 11.72 11.72 0 0 1-.6-3.23 5.9 5.9 0 0 1 .88-3.14c.63-1.1 1.5-2.1 2.63-3a13.96 13.96 0 0 1 4.17-2.2c1.62-.6 3.4-.9 5.34-.9 1.13 0 2.16.14 3.1.42a10.96 10.96 0 0 1 4.73 2.54c.6.53 1.1 1.07 1.5 1.64a10.9 10.9 0 0 1 1.64 3.8c.16.71.2 1.45.14 2.2a1215.05 1215.05 0 0 1-9.14.18h-3.7a248.05 248.05 0 0 0-5.53.19 5.16 5.16 0 0 0 1.17 2.9 7.53 7.53 0 0 0 2.06 1.5c.81.38 1.7.6 2.67.66Zm-4.22-8.43a175.23 175.23 0 0 0 4.18.23c.46.03.84.05 1.12.05h1.17c.78 0 2.24-.05 4.36-.14a6.24 6.24 0 0 0-.89-3.14 5.31 5.31 0 0 0-1.5-1.6 4.71 4.71 0 0 0-2.06-.65c-2.03.03-3.55.45-4.55 1.26-.97.81-1.58 2.14-1.83 3.99Zm15.47-9.85c.53.1 1.08.17 1.64.24l1.46.09a23.5 23.5 0 0 0 3.04 0 61.68 61.68 0 0 0 4.13-.42 4.57 4.57 0 0 0-1.83 1.73 3 3 0 0 0-.37.85c-.07.25-.05.76.04 1.54.1.78.22 1.7.38 2.72l.6 3.24c.23 1.12.44 2.15.66 3.09a67 67 0 0 0 .66 2.34c.22.63.39.93.51.9.13 0 .32-.32.57-.94.28-.63.6-1.4.94-2.3a85.75 85.75 0 0 0 2.72-8.63c.18-.68.26-1.09.23-1.21-.1-.13-.2-.3-.33-.52-.22-.34-.7-.94-1.45-1.78.9.06 1.68.12 2.34.19.66.03 1.19.07 1.6.14l1.12.14a42.23 42.23 0 0 0 2.95-.05 91.5 91.5 0 0 0 2.77-.28c-.81.47-1.49.9-2.02 1.27-.5.34-.89.64-1.17.89-.34.3-.6.57-.75.8-.22.4-.6 1.37-1.17 2.9l-.94 2.44-1.26 3.51c-.47 1.35-1.04 2.92-1.7 4.74-.65 1.8-1.38 3.89-2.2 6.23l-4.54.47c-.6-1.97-1.08-3.6-1.45-4.92a273.9 273.9 0 0 0-.85-3.24 82.34 82.34 0 0 1-1.12-4.78l-.66-3.51a71.25 71.25 0 0 0-.66-3.2 8.84 8.84 0 0 0-.51-1.77 11.96 11.96 0 0 0-1.69-1.55c-.44-.37-1-.83-1.69-1.36Z" fill="#000"/>
  <path fill-rule="evenodd" clip-rule="evenodd" d="M179 105.5V124h194V87H179v18.5Zm140.65 0v11.77H188.7V93.73h130.95v11.77Zm32-10.23c5.27 2.26 8.07 7.34 6.2 11.27l-.75 1.57 3.54 2.48 3.54 2.49-3.46 2.4-3.47 2.4-3.58-2.45-3.58-2.46-2.27.52c-5.73 1.32-12.98-.64-16.33-4.4-1.62-1.81-1.84-2.43-1.84-5.24 0-2.72.25-3.47 1.67-5.16 2.95-3.47 7.52-5.08 13.67-4.8 2.87.12 4.53.47 6.66 1.38Zm-11.11 6.22c-3 2.08-.88 5.7 3.36 5.7 2.5 0 4.85-1.64 4.85-3.37 0-1.73-2.36-3.36-4.85-3.36-1.18 0-2.42.38-3.36 1.03Z" fill="#000"/>
</svg>
